<mxfile host="app.diagrams.net" modified="2022-06-28T08:41:28.623Z" agent="5.0 (X11; Linux x86_64) AppleWebKit/537.36 (KHTML, like Gecko) Chrome/102.0.0.0 Safari/537.36" etag="vLef_rZ6IbKmsLnNZ7lM" version="20.0.3" type="github">
  <diagram id="Oumj2zli1V17Xpb5Ma0x" name="第 1 页">
    <mxGraphModel dx="1778" dy="1000" grid="1" gridSize="10" guides="1" tooltips="1" connect="1" arrows="1" fold="1" page="1" pageScale="1" pageWidth="850" pageHeight="1100" math="0" shadow="0">
      <root>
        <mxCell id="0" />
        <mxCell id="1" parent="0" />
        <mxCell id="R2G4ohbD9GDyNNkMWIZT-2" value="" style="rounded=0;whiteSpace=wrap;html=1;fillColor=none;" vertex="1" parent="1">
          <mxGeometry x="80" y="229" width="310" height="210" as="geometry" />
        </mxCell>
        <mxCell id="R2G4ohbD9GDyNNkMWIZT-3" value="Secret Manager" style="rounded=1;whiteSpace=wrap;html=1;fillColor=none;" vertex="1" parent="1">
          <mxGeometry x="100" y="249" width="120" height="30" as="geometry" />
        </mxCell>
        <mxCell id="R2G4ohbD9GDyNNkMWIZT-22" style="edgeStyle=orthogonalEdgeStyle;rounded=0;orthogonalLoop=1;jettySize=auto;html=1;exitX=0;exitY=0.5;exitDx=0;exitDy=0;entryX=1;entryY=0.5;entryDx=0;entryDy=0;fillColor=#dae8fc;strokeColor=#6c8ebf;" edge="1" parent="1" source="R2G4ohbD9GDyNNkMWIZT-4" target="R2G4ohbD9GDyNNkMWIZT-3">
          <mxGeometry relative="1" as="geometry" />
        </mxCell>
        <mxCell id="R2G4ohbD9GDyNNkMWIZT-4" value="KMS" style="rounded=1;whiteSpace=wrap;html=1;fillColor=none;" vertex="1" parent="1">
          <mxGeometry x="250" y="249" width="120" height="30" as="geometry" />
        </mxCell>
        <mxCell id="R2G4ohbD9GDyNNkMWIZT-5" value="IAM" style="rounded=1;whiteSpace=wrap;html=1;fillColor=none;" vertex="1" parent="1">
          <mxGeometry x="100" y="319" width="120" height="30" as="geometry" />
        </mxCell>
        <mxCell id="R2G4ohbD9GDyNNkMWIZT-6" value="S3" style="rounded=1;whiteSpace=wrap;html=1;fillColor=none;" vertex="1" parent="1">
          <mxGeometry x="250" y="319" width="120" height="30" as="geometry" />
        </mxCell>
        <mxCell id="R2G4ohbD9GDyNNkMWIZT-7" value="Kinesis" style="rounded=1;whiteSpace=wrap;html=1;fillColor=none;" vertex="1" parent="1">
          <mxGeometry x="250" y="389" width="120" height="30" as="geometry" />
        </mxCell>
        <mxCell id="R2G4ohbD9GDyNNkMWIZT-13" style="edgeStyle=orthogonalEdgeStyle;rounded=0;orthogonalLoop=1;jettySize=auto;html=1;exitX=0.55;exitY=0.95;exitDx=0;exitDy=0;exitPerimeter=0;entryX=0.5;entryY=0;entryDx=0;entryDy=0;fillColor=#fff2cc;strokeColor=#d6b656;" edge="1" parent="1" source="R2G4ohbD9GDyNNkMWIZT-8" target="R2G4ohbD9GDyNNkMWIZT-3">
          <mxGeometry relative="1" as="geometry" />
        </mxCell>
        <mxCell id="R2G4ohbD9GDyNNkMWIZT-8" value="SFCC" style="ellipse;shape=cloud;whiteSpace=wrap;html=1;fillColor=none;" vertex="1" parent="1">
          <mxGeometry x="94" y="117" width="120" height="80" as="geometry" />
        </mxCell>
        <mxCell id="R2G4ohbD9GDyNNkMWIZT-15" style="edgeStyle=orthogonalEdgeStyle;rounded=0;orthogonalLoop=1;jettySize=auto;html=1;exitX=0.16;exitY=0.55;exitDx=0;exitDy=0;exitPerimeter=0;fillColor=#dae8fc;strokeColor=#6c8ebf;" edge="1" parent="1" source="R2G4ohbD9GDyNNkMWIZT-9" target="R2G4ohbD9GDyNNkMWIZT-4">
          <mxGeometry relative="1" as="geometry">
            <Array as="points">
              <mxPoint x="310" y="164" />
            </Array>
          </mxGeometry>
        </mxCell>
        <mxCell id="R2G4ohbD9GDyNNkMWIZT-20" style="edgeStyle=orthogonalEdgeStyle;rounded=0;orthogonalLoop=1;jettySize=auto;html=1;exitX=0.55;exitY=0.95;exitDx=0;exitDy=0;exitPerimeter=0;entryX=0.5;entryY=0;entryDx=0;entryDy=0;fillColor=#dae8fc;strokeColor=#6c8ebf;" edge="1" parent="1" source="R2G4ohbD9GDyNNkMWIZT-9" target="R2G4ohbD9GDyNNkMWIZT-6">
          <mxGeometry relative="1" as="geometry">
            <Array as="points">
              <mxPoint x="431" y="300" />
              <mxPoint x="310" y="300" />
            </Array>
          </mxGeometry>
        </mxCell>
        <mxCell id="R2G4ohbD9GDyNNkMWIZT-9" value="OMS" style="ellipse;shape=cloud;whiteSpace=wrap;html=1;fillColor=none;" vertex="1" parent="1">
          <mxGeometry x="365" y="120" width="120" height="80" as="geometry" />
        </mxCell>
        <mxCell id="R2G4ohbD9GDyNNkMWIZT-19" style="edgeStyle=orthogonalEdgeStyle;rounded=0;orthogonalLoop=1;jettySize=auto;html=1;exitX=0.55;exitY=0.95;exitDx=0;exitDy=0;exitPerimeter=0;entryX=0.5;entryY=1;entryDx=0;entryDy=0;fillColor=#d5e8d4;strokeColor=#82b366;" edge="1" parent="1" source="R2G4ohbD9GDyNNkMWIZT-10" target="R2G4ohbD9GDyNNkMWIZT-7">
          <mxGeometry relative="1" as="geometry">
            <Array as="points">
              <mxPoint x="450" y="395" />
              <mxPoint x="450" y="470" />
              <mxPoint x="310" y="470" />
            </Array>
          </mxGeometry>
        </mxCell>
        <mxCell id="R2G4ohbD9GDyNNkMWIZT-10" value="WMOS" style="ellipse;shape=cloud;whiteSpace=wrap;html=1;fillColor=none;" vertex="1" parent="1">
          <mxGeometry x="386" y="319" width="120" height="80" as="geometry" />
        </mxCell>
        <mxCell id="R2G4ohbD9GDyNNkMWIZT-21" style="edgeStyle=orthogonalEdgeStyle;rounded=0;orthogonalLoop=1;jettySize=auto;html=1;exitX=0.4;exitY=0.1;exitDx=0;exitDy=0;exitPerimeter=0;entryX=0.5;entryY=1;entryDx=0;entryDy=0;fillColor=#e1d5e7;strokeColor=#9673a6;" edge="1" parent="1" source="R2G4ohbD9GDyNNkMWIZT-11" target="R2G4ohbD9GDyNNkMWIZT-5">
          <mxGeometry relative="1" as="geometry" />
        </mxCell>
        <mxCell id="R2G4ohbD9GDyNNkMWIZT-11" value="GitHub Action" style="ellipse;shape=cloud;whiteSpace=wrap;html=1;fillColor=none;" vertex="1" parent="1">
          <mxGeometry x="112" y="461" width="120" height="80" as="geometry" />
        </mxCell>
        <mxCell id="R2G4ohbD9GDyNNkMWIZT-23" value="1" style="ellipse;whiteSpace=wrap;html=1;aspect=fixed;fillColor=none;" vertex="1" parent="1">
          <mxGeometry x="140" y="200" width="14" height="14" as="geometry" />
        </mxCell>
        <mxCell id="R2G4ohbD9GDyNNkMWIZT-24" value="2" style="ellipse;whiteSpace=wrap;html=1;aspect=fixed;fillColor=none;" vertex="1" parent="1">
          <mxGeometry x="314" y="198" width="14" height="14" as="geometry" />
        </mxCell>
        <mxCell id="R2G4ohbD9GDyNNkMWIZT-25" value="3" style="ellipse;whiteSpace=wrap;html=1;aspect=fixed;fillColor=none;" vertex="1" parent="1">
          <mxGeometry x="415" y="250" width="14" height="14" as="geometry" />
        </mxCell>
        <mxCell id="R2G4ohbD9GDyNNkMWIZT-26" value="4" style="ellipse;whiteSpace=wrap;html=1;aspect=fixed;fillColor=none;" vertex="1" parent="1">
          <mxGeometry x="395" y="447" width="14" height="14" as="geometry" />
        </mxCell>
        <mxCell id="R2G4ohbD9GDyNNkMWIZT-27" value="5" style="ellipse;whiteSpace=wrap;html=1;aspect=fixed;fillColor=none;" vertex="1" parent="1">
          <mxGeometry x="162" y="445" width="14" height="14" as="geometry" />
        </mxCell>
      </root>
    </mxGraphModel>
  </diagram>
</mxfile>
